<svg width="23" height="23" viewBox="0 0 23 23" fill="none" xmlns="http://www.w3.org/2000/svg">
<path d="M8.48129 16.1032L11.5 14.2824L14.5188 16.1271L13.7282 12.6771L16.3875 10.3771L12.8896 10.0657L11.5 6.80736L10.1105 10.0417L6.61254 10.3532L9.27191 12.6771L8.48129 16.1032ZM11.5 16.5344L7.52295 18.9303C7.34726 19.0421 7.16358 19.09 6.97191 19.074C6.78025 19.058 6.61254 18.9942 6.46879 18.8824C6.32504 18.7706 6.21323 18.631 6.13337 18.4636C6.05351 18.2955 6.03754 18.1077 6.08545 17.9001L7.13962 13.3719L3.61775 10.3292C3.45802 10.1855 3.35836 10.0216 3.31875 9.83761C3.2785 9.65424 3.29031 9.47472 3.3542 9.29902C3.41809 9.12333 3.51393 8.97958 3.6417 8.86777C3.76948 8.75597 3.94518 8.68409 4.16879 8.65215L8.8167 8.24486L10.6136 3.98027C10.6934 3.78861 10.8174 3.64486 10.9854 3.54902C11.1528 3.45319 11.3243 3.40527 11.5 3.40527C11.6757 3.40527 11.8476 3.45319 12.0156 3.54902C12.183 3.64486 12.3066 3.78861 12.3865 3.98027L14.1834 8.24486L18.8313 8.65215C19.0549 8.68409 19.2306 8.75597 19.3584 8.86777C19.4861 8.97958 19.582 9.12333 19.6459 9.29902C19.7098 9.47472 19.7219 9.65424 19.6823 9.83761C19.642 10.0216 19.542 10.1855 19.3823 10.3292L15.8605 13.3719L16.9146 17.9001C16.9625 18.1077 16.9466 18.2955 16.8667 18.4636C16.7868 18.631 16.675 18.7706 16.5313 18.8824C16.3875 18.9942 16.2198 19.058 16.0282 19.074C15.8365 19.09 15.6528 19.0421 15.4771 18.9303L11.5 16.5344Z" fill="#FFC700"/>
</svg>
