<svg width="23" height="23" viewBox="0 0 23 23" fill="none" xmlns="http://www.w3.org/2000/svg">
<g id="Icon/Star">
<path id="Vector" d="M8.48129 16.1034L11.5 14.2826L14.5188 16.1274L13.7282 12.6774L16.3875 10.3774L12.8896 10.0659L11.5 6.8076L10.1105 10.042L6.61254 10.3534L9.27191 12.6774L8.48129 16.1034ZM11.5 16.5347L7.52295 18.9305C7.34726 19.0423 7.16358 19.0902 6.97191 19.0743C6.78025 19.0583 6.61254 18.9944 6.46879 18.8826C6.32504 18.7708 6.21323 18.6312 6.13337 18.4638C6.05351 18.2958 6.03754 18.1079 6.08545 17.9003L7.13962 13.3722L3.61775 10.3295C3.45802 10.1857 3.35836 10.0219 3.31875 9.83785C3.2785 9.65449 3.29031 9.47496 3.3542 9.29927C3.41809 9.12357 3.51393 8.97982 3.6417 8.86802C3.76948 8.75621 3.94518 8.68434 4.16879 8.65239L8.8167 8.2451L10.6136 3.98052C10.6934 3.78885 10.8174 3.6451 10.9854 3.54927C11.1528 3.45343 11.3243 3.40552 11.5 3.40552C11.6757 3.40552 11.8476 3.45343 12.0156 3.54927C12.183 3.6451 12.3066 3.78885 12.3865 3.98052L14.1834 8.2451L18.8313 8.65239C19.0549 8.68434 19.2306 8.75621 19.3584 8.86802C19.4861 8.97982 19.582 9.12357 19.6459 9.29927C19.7098 9.47496 19.7219 9.65449 19.6823 9.83785C19.642 10.0219 19.542 10.1857 19.3823 10.3295L15.8605 13.3722L16.9146 17.9003C16.9625 18.1079 16.9466 18.2958 16.8667 18.4638C16.7868 18.6312 16.675 18.7708 16.5313 18.8826C16.3875 18.9944 16.2198 19.0583 16.0282 19.0743C15.8365 19.0902 15.6528 19.0423 15.4771 18.9305L11.5 16.5347Z" fill="white"/>
</g>
</svg>
