<svg width="35" height="33" viewBox="0 0 35 33" fill="none" xmlns="http://www.w3.org/2000/svg">
<path d="M11.3312 26.9069L17.5 23.1861L23.6687 26.9559L22.0531 19.9059L27.4875 15.2059L20.3396 14.5694L17.5 7.91107L14.6604 14.5204L7.51249 15.1569L12.9469 19.9059L11.3312 26.9069ZM17.5 27.7881L9.3729 32.684C9.01387 32.9125 8.63853 33.0104 8.24686 32.9777C7.85519 32.9451 7.51249 32.8145 7.21873 32.5861C6.92498 32.3576 6.69651 32.0723 6.53332 31.7303C6.37012 31.3869 6.33748 31.0031 6.4354 30.5788L8.58957 21.3257L1.39269 15.1079C1.0663 14.8142 0.862638 14.4793 0.781694 14.1033C0.699444 13.7286 0.723596 13.3618 0.854152 13.0027C0.984707 12.6437 1.18054 12.35 1.44165 12.1215C1.70276 11.893 2.06179 11.7461 2.51873 11.6809L12.0167 10.8486L15.6885 2.13399C15.8517 1.74232 16.105 1.44857 16.4484 1.25273C16.7904 1.0569 17.141 0.958984 17.5 0.958984C17.859 0.958984 18.2102 1.0569 18.5536 1.25273C18.8956 1.44857 19.1482 1.74232 19.3114 2.13399L22.9833 10.8486L32.4812 11.6809C32.9382 11.7461 33.2972 11.893 33.5583 12.1215C33.8194 12.35 34.0153 12.6437 34.1458 13.0027C34.2764 13.3618 34.3012 13.7286 34.2202 14.1033C34.138 14.4793 33.9337 14.8142 33.6073 15.1079L26.4104 21.3257L28.5646 30.5788C28.6625 31.0031 28.6298 31.3869 28.4667 31.7303C28.3035 32.0723 28.075 32.3576 27.7812 32.5861C27.4875 32.8145 27.1448 32.9451 26.7531 32.9777C26.3614 33.0104 25.9861 32.9125 25.6271 32.684L17.5 27.7881Z" fill="#327FDE"/>
</svg>
