<svg width="25" height="33" viewBox="0 0 25 33" fill="none" xmlns="http://www.w3.org/2000/svg">
<path d="M12.5 25.2087C11.6823 25.2087 10.898 24.8838 10.3198 24.3056C9.74154 23.7273 9.41669 22.9431 9.41669 22.1253C9.41669 20.4141 10.7888 19.042 12.5 19.042C13.3178 19.042 14.102 19.3668 14.6803 19.9451C15.2585 20.5233 15.5834 21.3076 15.5834 22.1253C15.5834 22.9431 15.2585 23.7273 14.6803 24.3056C14.102 24.8838 13.3178 25.2087 12.5 25.2087ZM21.75 29.8337V14.417H3.25002V29.8337H21.75ZM21.75 11.3337C22.5678 11.3337 23.352 11.6585 23.9303 12.2367C24.5085 12.815 24.8334 13.5992 24.8334 14.417V29.8337C24.8334 30.6514 24.5085 31.4357 23.9303 32.0139C23.352 32.5921 22.5678 32.917 21.75 32.917H3.25002C2.43227 32.917 1.64801 32.5921 1.06977 32.0139C0.491537 31.4357 0.166687 30.6514 0.166687 29.8337V14.417C0.166687 12.7057 1.53877 11.3337 3.25002 11.3337H4.79169V8.25033C4.79169 6.20595 5.60381 4.2453 7.04941 2.79971C8.495 1.35412 10.4556 0.541992 12.5 0.541992C13.5123 0.541992 14.5147 0.741374 15.4499 1.12875C16.3851 1.51613 17.2349 2.08393 17.9506 2.79971C18.6664 3.5155 19.2342 4.36526 19.6216 5.30047C20.009 6.23569 20.2084 7.23805 20.2084 8.25033V11.3337H21.75ZM12.5 3.62533C11.2734 3.62533 10.097 4.1126 9.22965 4.97996C8.3623 5.84731 7.87502 7.0237 7.87502 8.25033V11.3337H17.125V8.25033C17.125 7.0237 16.6377 5.84731 15.7704 4.97996C14.903 4.1126 13.7266 3.62533 12.5 3.62533Z" fill="#327FDE"/>
</svg>
