<svg width="38" height="26" viewBox="0 0 38 26" fill="none" xmlns="http://www.w3.org/2000/svg">
<path d="M19 3.49968C23.1483 3.49968 26.7267 6.44468 27.5342 10.5138L28.0092 12.8888L30.4317 13.063C31.6219 13.1431 32.7377 13.671 33.5543 14.5406C34.371 15.4101 34.828 16.5567 34.8333 17.7497C34.8333 20.3622 32.6958 22.4997 30.0833 22.4997H9.5C6.00083 22.4997 3.16667 19.6655 3.16667 16.1663C3.16667 12.9205 5.58917 10.213 8.80333 9.88051L10.4975 9.70634L11.2892 8.20218C12.0173 6.78474 13.1225 5.59572 14.4829 4.76602C15.8434 3.93632 17.4065 3.49812 19 3.49968ZM19 0.333008C14.4242 0.333008 10.45 2.92967 8.47083 6.72967C6.1437 6.98116 3.99159 8.08375 2.42802 9.8256C0.864454 11.5674 -0.000271861 13.8257 6.41135e-08 16.1663C6.41135e-08 21.4072 4.25917 25.6663 9.5 25.6663H30.0833C34.4533 25.6663 38 22.1197 38 17.7497C38 13.5697 34.7542 10.1813 30.6375 9.89634C30.1057 7.20106 28.6545 4.77403 26.532 3.02981C24.4095 1.28559 21.7473 0.332387 19 0.333008Z" fill="#327FDE"/>
</svg>
