<svg width="35" height="33" viewBox="0 0 35 33" fill="none" xmlns="http://www.w3.org/2000/svg">
<path d="M0.416626 3.54167C0.416626 2.63551 0.776595 1.76647 1.41734 1.12572C2.05809 0.484969 2.92714 0.125 3.83329 0.125H31.1666C32.0728 0.125 32.9418 0.484969 33.5826 1.12572C34.2233 1.76647 34.5833 2.63551 34.5833 3.54167V22.3333C34.5833 23.2395 34.2233 24.1085 33.5826 24.7493C32.9418 25.39 32.0728 25.75 31.1666 25.75H19.2083V29.1667H24.3333C24.7864 29.1667 25.2209 29.3466 25.5413 29.667C25.8616 29.9874 26.0416 30.4219 26.0416 30.875C26.0416 31.3281 25.8616 31.7626 25.5413 32.083C25.2209 32.4033 24.7864 32.5833 24.3333 32.5833H10.6666C10.2135 32.5833 9.77903 32.4033 9.45865 32.083C9.13828 31.7626 8.95829 31.3281 8.95829 30.875C8.95829 30.4219 9.13828 29.9874 9.45865 29.667C9.77903 29.3466 10.2135 29.1667 10.6666 29.1667H15.7916V25.75H3.83329C2.92714 25.75 2.05809 25.39 1.41734 24.7493C0.776595 24.1085 0.416626 23.2395 0.416626 22.3333V3.54167ZM31.1666 22.3333V3.54167H3.83329V22.3333H31.1666Z" fill="#327FDE"/>
</svg>
