<svg width="16" height="16" viewBox="0 0 16 16" fill="none" xmlns="http://www.w3.org/2000/svg">
<g id="Frame 10">
<g id="Group 67">
<path id="Vector" d="M10.1629 7.09388C10.1629 7.25677 10.0982 7.41299 9.98302 7.52817C9.86786 7.64336 9.71166 7.70807 9.5488 7.70807H7.70659V9.55063C7.70659 9.71352 7.64189 9.86975 7.52673 9.98493C7.41157 10.1001 7.25538 10.1648 7.09252 10.1648C6.92966 10.1648 6.77347 10.1001 6.6583 9.98493C6.54314 9.86975 6.47845 9.71352 6.47845 9.55063V7.70807H4.63623C4.47337 7.70807 4.31718 7.64336 4.20202 7.52817C4.08686 7.41299 4.02216 7.25677 4.02216 7.09388C4.02216 6.93098 4.08686 6.77476 4.20202 6.65958C4.31718 6.5444 4.47337 6.47969 4.63623 6.47969H6.47845V4.63712C6.47845 4.47423 6.54314 4.31801 6.6583 4.20283C6.77347 4.08764 6.92966 4.02293 7.09252 4.02293C7.25538 4.02293 7.41157 4.08764 7.52673 4.20283C7.64189 4.31801 7.70659 4.47423 7.70659 4.63712V6.47969H9.5488C9.71166 6.47969 9.86786 6.5444 9.98302 6.65958C10.0982 6.77476 10.1629 6.93098 10.1629 7.09388ZM15.82 15.823C15.7026 15.9365 15.5457 16 15.3825 16C15.2192 16 15.0623 15.9365 14.945 15.823L11.629 12.4987C10.2324 13.672 8.4369 14.2607 6.61692 14.1421C4.79694 14.0234 3.09302 13.2066 1.86052 11.862C0.628017 10.5174 -0.0378943 8.74874 0.00166695 6.92498C0.0412282 5.10122 0.783208 3.36315 2.07286 2.07325C3.36251 0.783358 5.10025 0.0412361 6.92366 0.00166727C8.74707 -0.0379016 10.5154 0.628137 11.8597 1.86087C13.2041 3.09361 14.0207 4.79786 14.1394 6.61819C14.258 8.43852 13.6694 10.2344 12.4963 11.6312L15.82 14.9478C15.9353 15.0643 16 15.2215 16 15.3854C16 15.5493 15.9353 15.7066 15.82 15.823ZM7.09252 12.9287C8.24631 12.9287 9.37419 12.5865 10.3335 11.9453C11.2929 11.3042 12.0406 10.3929 12.4821 9.32675C12.9237 8.26059 13.0392 7.0874 12.8141 5.95557C12.589 4.82373 12.0334 3.78407 11.2175 2.96806C10.4017 2.15205 9.36223 1.59634 8.23061 1.3712C7.09899 1.14606 5.92603 1.26161 4.86007 1.70323C3.7941 2.14485 2.88301 2.89271 2.242 3.85224C1.60098 4.81177 1.25884 5.93986 1.25884 7.09388C1.26088 8.64074 1.87615 10.1237 2.96973 11.2175C4.06332 12.3112 5.54596 12.9266 7.09252 12.9287Z" fill="#232323"/>
</g>
</g>
</svg>
